<?xml version="1.0" encoding="UTF-8"?>
<svg version="1.1" xmlns="http://www.w3.org/2000/svg" width="1000" height="1000">
<path d="M0 0 C13.2 0 26.4 0 40 0 C40.4375 11.375 40.4375 11.375 40.56811523 14.95849609 C40.6252771 16.35189209 40.6252771 16.35189209 40.68359375 17.7734375 C40.73858032 19.20308838 40.73858032 19.20308838 40.79467773 20.66162109 C40.85763465 23.02132349 40.85763465 23.02132349 42 25 C42.15948086 27.93588909 42.25964825 30.85069074 42.31640625 33.7890625 C42.34764587 35.15596977 42.34764587 35.15596977 42.3795166 36.55049133 C42.44621545 39.57523657 42.50482682 42.60007003 42.5625 45.625 C42.58367889 46.65545441 42.60485779 47.68590881 42.62667847 48.74758911 C43.110601 72.49781058 43.10298171 96.2460794 43 120 C43.66 120 44.32 120 45 120 C45 135.18 45 150.36 45 166 C45.66 166 46.32 166 47 166 C47.061875 165.4225 47.12375 164.845 47.1875 164.25 C48.3187079 161.11742429 50.37947801 159.96539149 53 158 C53.33 157.34 53.66 156.68 54 156 C54.66 156 55.32 156 56 156 C56 155.01 56 154.02 56 153 C56.66 153 57.32 153 58 153 C58.33 152.01 58.66 151.02 59 150 C59.66 150 60.32 150 61 150 C61.33 149.01 61.66 148.02 62 147 C62.66 147 63.32 147 64 147 C64.33 146.01 64.66 145.02 65 144 C65.66 144 66.32 144 67 144 C67 143.01 67 142.02 67 141 C67.66 141 68.32 141 69 141 C69.061875 140.4225 69.12375 139.845 69.1875 139.25 C70.3187079 136.11742429 72.37947801 134.96539149 75 133 C75.33 132.34 75.66 131.68 76 131 C76.66 131 77.32 131 78 131 C78 130.01 78 129.02 78 128 C78.66 128 79.32 128 80 128 C80.495 126.515 80.495 126.515 81 125 C81.66 125 82.32 125 83 125 C83.495 123.515 83.495 123.515 84 122 C84.66 122 85.32 122 86 122 C86.495 120.515 86.495 120.515 87 119 C87.66 119 88.32 119 89 119 C89.061875 118.46375 89.12375 117.9275 89.1875 117.375 C90.71102738 112.92161229 94.43944745 109.05190219 98 106 C98.66 106 99.32 106 100 106 C100.495 104.515 100.495 104.515 101 103 C101.66 103 102.32 103 103 103 C103 102.34 103 101.68 103 101 C103.66 100.67 104.32 100.34 105 100 C105.495 98.515 105.495 98.515 106 97 C106.66 97 107.32 97 108 97 C108.495 95.515 108.495 95.515 109 94 C109.66 94 110.32 94 111 94 C111.268125 93.360625 111.53625 92.72125 111.8125 92.0625 C113 90 113 90 116 89 C116.495 87.515 116.495 87.515 117 86 C117.66 86 118.32 86 119 86 C119.495 84.515 119.495 84.515 120 83 C120.99 83 121.98 83 123 83 C123 82.34 123 81.68 123 81 C124.32 81 125.64 81 127 81 C127 80.34 127 79.68 127 79 C127.71027344 78.86722656 128.42054688 78.73445313 129.15234375 78.59765625 C130.53099609 78.33275391 130.53099609 78.33275391 131.9375 78.0625 C133.31228516 77.80146484 133.31228516 77.80146484 134.71484375 77.53515625 C136.95289844 77.22285012 136.95289844 77.22285012 138 76 C140.14558827 75.91224395 142.29404421 75.89304781 144.44140625 75.90234375 C145.74658203 75.90556641 147.05175781 75.90878906 148.39648438 75.91210938 C149.7851569 75.92046599 151.17382877 75.92893095 152.5625 75.9375 C153.95507656 75.94251334 155.34765481 75.94707653 156.74023438 75.95117188 C160.1601987 75.96300566 163.58007844 75.9794912 167 76 C167 76.66 167 77.32 167 78 C171.29 78 175.58 78 180 78 C180 79.65 180 81.3 180 83 C179.34 83 178.68 83 178 83 C177.67 84.98 177.34 86.96 177 89 C176.34 89 175.68 89 175 89 C175 89.99 175 90.98 175 92 C174.34 92 173.68 92 173 92 C172.67 93.98 172.34 95.96 172 98 C171.34 98 170.68 98 170 98 C169.67 99.98 169.34 101.96 169 104 C168.34 104 167.68 104 167 104 C166.67 105.32 166.34 106.64 166 108 C165.34 108 164.68 108 164 108 C164 108.99 164 109.98 164 111 C162.37064759 112.37868281 160.70250393 113.71274093 159 115 C158.67 115.66 158.34 116.32 158 117 C157.34 117 156.68 117 156 117 C155.67 117.99 155.34 118.98 155 120 C154.34 120 153.68 120 153 120 C152.67 120.99 152.34 121.98 152 123 C151.34 123 150.68 123 150 123 C150 123.66 150 124.32 150 125 C148.625 126.625 148.625 126.625 147 128 C146.34 128 145.68 128 145 128 C144.67 128.99 144.34 129.98 144 131 C143.34 131 142.68 131 142 131 C141.9175 131.61875 141.835 132.2375 141.75 132.875 C141 135 141 135 139 136.0625 C138.34 136.371875 137.68 136.68125 137 137 C136.67 137.99 136.34 138.98 136 140 C135.34 140 134.68 140 134 140 C133.938125 140.5775 133.87625 141.155 133.8125 141.75 C132.66615826 144.92448483 130.74043158 146.12848575 128 148 C127.34 148 126.68 148 126 148 C125.67 148.99 125.34 149.98 125 151 C124.34 151 123.68 151 123 151 C122.87431641 151.87398438 122.87431641 151.87398438 122.74609375 152.765625 C121.78273304 155.65066337 120.37020296 156.79700726 118.0625 158.75 C116.99708984 159.67039062 116.99708984 159.67039062 115.91015625 160.609375 C114 162 114 162 112 162 C111.938125 162.5775 111.87625 163.155 111.8125 163.75 C110.6726745 166.90643986 108.66405371 168.03367464 106 170 C105.443125 170.5775 104.88625 171.155 104.3125 171.75 C103 173 103 173 101 173 C101 175.64 101 178.28 101 181 C101.66 181 102.32 181 103 181 C106 187.625 106 187.625 106 191 C106.66 191 107.32 191 108 191 C108.33 192.98 108.66 194.96 109 197 C109.99 197.33 110.98 197.66 112 198 C112 199.32 112 200.64 112 202 C112.99 202.33 113.98 202.66 115 203 C116.38671875 204.77734375 116.38671875 204.77734375 117.6875 206.9375 C118.12449219 207.64777344 118.56148437 208.35804688 119.01171875 209.08984375 C120 211 120 211 120 213 C120.66 213 121.32 213 122 213 C122.33 213.99 122.66 214.98 123 216 C123.7734375 216.7425 123.7734375 216.7425 124.5625 217.5 C126 219 126 219 126 222 C126.66 222 127.32 222 128 222 C128 222.66 128 223.32 128 224 C128.99 224.33 129.98 224.66 131 225 C131 225.99 131 226.98 131 228 C131.66 228 132.32 228 133 228 C137 232.35294118 137 232.35294118 137 236 C137.66 236 138.32 236 139 236 C139 236.66 139 237.32 139 238 C139.99 238.33 140.98 238.66 142 239 C142 239.99 142 240.98 142 242 C142.66 242 143.32 242 144 242 C144.33 243.32 144.66 244.64 145 246 C145.66 246 146.32 246 147 246 C147.33 246.99 147.66 247.98 148 249 C148.66 249.33 149.32 249.66 150 250 C150 250.99 150 251.98 150 253 C150.66 253 151.32 253 152 253 C152.598125 254.093125 153.19625 255.18625 153.8125 256.3125 C155.01746217 258.44369643 156.0095013 260.0095013 157.75 261.75 C159 263 159 263 159 266 C159.99 266.33 160.98 266.66 162 267 C162 267.66 162 268.32 162 269 C162.66 269 163.32 269 164 269 C164 269.99 164 270.98 164 272 C164.66 272 165.32 272 166 272 C166.33 273.65 166.66 275.3 167 277 C167.99 277.33 168.98 277.66 170 278 C170 278.66 170 279.32 170 280 C170.66 280 171.32 280 172 280 C172.33 281.65 172.66 283.3 173 285 C173.66 285 174.32 285 175 285 C175 285.99 175 286.98 175 288 C175.99 288.33 176.98 288.66 178 289 C178 289.99 178 290.98 178 292 C178.66 292 179.32 292 180 292 C180.33 293.65 180.66 295.3 181 297 C181.66 297 182.32 297 183 297 C183.33 298.65 183.66 300.3 184 302 C184.66 302 185.32 302 186 302 C186 302.99 186 303.98 186 305 C186.66 305 187.32 305 188 305 C188.33 306.65 188.66 308.3 189 310 C189.66 310 190.32 310 191 310 C191 311.32 191 312.64 191 314 C188.36 314 185.72 314 183 314 C183 314.66 183 315.32 183 316 C178.46609283 316.87953083 174.17010619 317.12875728 169.5546875 317.1328125 C168.51624191 317.13424759 168.51624191 317.13424759 167.45681763 317.13571167 C166.0029491 317.13638832 164.54907746 317.13457021 163.09521484 317.13037109 C160.87460554 317.12499905 158.65419697 317.13034193 156.43359375 317.13671875 C155.01562456 317.1360582 153.59765549 317.1347775 152.1796875 317.1328125 C150.89819824 317.13168457 149.61670898 317.13055664 148.29638672 317.12939453 C145.6436953 317.02526726 143.51047801 316.7957354 141 316 C141 315.34 141 314.68 141 314 C138.69 314 136.38 314 134 314 C133.67 313.01 133.34 312.02 133 311 C132.01 310.67 131.02 310.34 130 310 C130 309.34 130 308.68 130 308 C129.360625 307.731875 128.72125 307.46375 128.0625 307.1875 C126 306 126 306 125 303 C124.01 302.67 123.02 302.34 122 302 C122 301.34 122 300.68 122 300 C121.01 299.67 120.02 299.34 119 299 C119 298.34 119 297.68 119 297 C118.01 296.67 117.02 296.34 116 296 C116 295.34 116 294.68 116 294 C115.34 294 114.68 294 114 294 C114 293.34 114 292.68 114 292 C113.34 292 112.68 292 112 292 C111.505 290.515 111.505 290.515 111 289 C110.175 288.38125 109.35 287.7625 108.5 287.125 C105.68075768 284.72864403 105.30026863 283.6032236 105 280 C104.34 280 103.68 280 103 280 C103 279.34 103 278.68 103 278 C102.01 277.67 101.02 277.34 100 277 C100 276.01 100 275.02 100 274 C99.34 274 98.68 274 98 274 C97.67 272.68 97.34 271.36 97 270 C96.34 270 95.68 270 95 270 C94.505 268.515 94.505 268.515 94 267 C93.34 266.67 92.68 266.34 92 266 C89 261.5 89 261.5 89 259 C88.34 259 87.68 259 87 259 C83 252.375 83 252.375 83 249 C82.34 249 81.68 249 81 249 C80.505 246.525 80.505 246.525 80 244 C79.34 244 78.68 244 78 244 C78 243.34 78 242.68 78 242 C77.34 242 76.68 242 76 242 C75.67 240.02 75.34 238.04 75 236 C74.34 236 73.68 236 73 236 C72.505 233.525 72.505 233.525 72 231 C71.34 231 70.68 231 70 231 C69.49384702 229.73160474 68.99530901 228.46016898 68.5 227.1875 C68.2215625 226.47980469 67.943125 225.77210938 67.65625 225.04296875 C67 223 67 223 67 220 C63.91355482 218.97118494 62.13917542 218.93759014 58.9375 219.1875 C58.05964844 219.24292969 57.18179688 219.29835938 56.27734375 219.35546875 C53.82471847 219.76555638 53.82471847 219.76555638 52.8203125 222.015625 C52.54960937 222.67046875 52.27890625 223.3253125 52 224 C50.67405895 224.36162029 49.34061543 224.69728039 48 225 C47.67 225.99 47.34 226.98 47 228 C46.34 228 45.68 228 45 228 C45 232.29 45 236.58 45 241 C44.34 241 43.68 241 43 241 C43.01160156 241.76957031 43.02320313 242.53914062 43.03515625 243.33203125 C43.13913525 256.56707249 42.54171994 269.77828751 42 283 C41.34 283 40.68 283 40 283 C40 292.9 40 302.8 40 313 C26.8 313 13.6 313 0 313 C0 209.71 0 106.42 0 0 Z " fill="#20BCD7" transform="translate(416,240)"/>
<path d="M0 0 C4.95 0 9.9 0 15 0 C16.70645723 5.1193717 17.24102427 7.7642572 17.1953125 12.9296875 C17.18564453 14.86328125 17.18564453 14.86328125 17.17578125 16.8359375 C17.15907463 18.18229442 17.14214479 19.52864859 17.125 20.875 C17.11495664 22.24478517 17.10583317 23.61457742 17.09765625 24.984375 C17.07414412 28.32309756 17.0412793 31.66145761 17 35 C16.34 35 15.68 35 15 35 C15 37.64 15 40.28 15 43 C14.01 43.33 13.02 43.66 12 44 C12 44.66 12 45.32 12 46 C9.525 46.495 9.525 46.495 7 47 C7 47.66 7 48.32 7 49 C6.01 49 5.02 49 4 49 C3.67 49.99 3.34 50.98 3 52 C2.34 52 1.68 52 1 52 C1 52.66 1 53.32 1 54 C-1.475 54.495 -1.475 54.495 -4 55 C-4 55.66 -4 56.32 -4 57 C-4.99 57.33 -5.98 57.66 -7 58 C-7.33 58.66 -7.66 59.32 -8 60 C-10.5625 60.625 -10.5625 60.625 -13 61 C-13 61.66 -13 62.32 -13 63 C-13.99 63 -14.98 63 -16 63 C-16 63.66 -16 64.32 -16 65 C-18.475 65.495 -18.475 65.495 -21 66 C-21 66.66 -21 67.32 -21 68 C-23.97 68.495 -23.97 68.495 -27 69 C-27 69.66 -27 70.32 -27 71 C-29.97 71.495 -29.97 71.495 -33 72 C-33 72.66 -33 73.32 -33 74 C-34.32 74 -35.64 74 -37 74 C-37 74.66 -37 75.32 -37 76 C-39.97 76.495 -39.97 76.495 -43 77 C-43 77.66 -43 78.32 -43 79 C-45.97 79.495 -45.97 79.495 -49 80 C-49 80.66 -49 81.32 -49 82 C-51.97 82.495 -51.97 82.495 -55 83 C-55 83.66 -55 84.32 -55 85 C-61.625 88 -61.625 88 -65 88 C-65 88.66 -65 89.32 -65 90 C-67.64 90.33 -70.28 90.66 -73 91 C-73 91.66 -73 92.32 -73 93 C-76.465 93.495 -76.465 93.495 -80 94 C-80 94.66 -80 95.32 -80 96 C-81.32 96 -82.64 96 -84 96 C-84 96.66 -84 97.32 -84 98 C-85.98 98.33 -87.96 98.66 -90 99 C-90 99.66 -90 100.32 -90 101 C-91.26691507 101.67408308 -92.53870749 102.33900497 -93.8125 103 C-94.52019531 103.37125 -95.22789063 103.7425 -95.95703125 104.125 C-98 105 -98 105 -101 105 C-101.495 106.485 -101.495 106.485 -102 108 C-102.66 108 -103.32 108 -104 108 C-104 108.66 -104 109.32 -104 110 C-104.99 110 -105.98 110 -107 110 C-107 110.66 -107 111.32 -107 112 C-107.99 112.495 -107.99 112.495 -109 113 C-109 113.66 -109 114.32 -109 115 C-107.02 115.495 -107.02 115.495 -105 116 C-105 116.66 -105 117.32 -105 118 C-103.02 118.33 -101.04 118.66 -99 119 C-99 119.66 -99 120.32 -99 121 C-98.01 121 -97.02 121 -96 121 C-96 121.66 -96 122.32 -96 123 C-94.02 123.33 -92.04 123.66 -90 124 C-90 124.66 -90 125.32 -90 126 C-88.02 126.33 -86.04 126.66 -84 127 C-84 127.66 -84 128.32 -84 129 C-81.69 129.33 -79.38 129.66 -77 130 C-77 130.66 -77 131.32 -77 132 C-76.01 132 -75.02 132 -74 132 C-74 132.66 -74 133.32 -74 134 C-72.02 134.33 -70.04 134.66 -68 135 C-68 135.66 -68 136.32 -68 137 C-66.02 137.33 -64.04 137.66 -62 138 C-62 138.66 -62 139.32 -62 140 C-59.69 140.33 -57.38 140.66 -55 141 C-55 141.66 -55 142.32 -55 143 C-54.01 143 -53.02 143 -52 143 C-52 143.66 -52 144.32 -52 145 C-50.02 145.33 -48.04 145.66 -46 146 C-46 146.66 -46 147.32 -46 148 C-44.02 148.33 -42.04 148.66 -40 149 C-40 149.66 -40 150.32 -40 151 C-37.69 151.33 -35.38 151.66 -33 152 C-33 152.66 -33 153.32 -33 154 C-31.88625 154.185625 -31.88625 154.185625 -30.75 154.375 C-28.19858515 154.95486701 -26.2732427 155.73708739 -24 157 C-24 157.66 -24 158.32 -24 159 C-22.02 159.33 -20.04 159.66 -18 160 C-18 160.66 -18 161.32 -18 162 C-16.7315625 162.1546875 -16.7315625 162.1546875 -15.4375 162.3125 C-11.58557299 163.0828854 -8.55924969 164.36274514 -5 166 C-5 166.66 -5 167.32 -5 168 C-4.01 168 -3.02 168 -2 168 C-2 168.66 -2 169.32 -2 170 C-0.02 170.33 1.96 170.66 4 171 C4 171.66 4 172.32 4 173 C5.1446875 173.1546875 5.1446875 173.1546875 6.3125 173.3125 C9.18416484 174.04711194 10.23042094 174.6716065 12 177 C12 177.66 12 178.32 12 179 C12.66 179 13.32 179 14 179 C15.20887291 181.41774581 15.12059343 182.93331064 15.11352539 185.63330078 C15.11344986 186.59414581 15.11337433 187.55499084 15.11329651 188.54495239 C15.10813522 189.58457123 15.10297394 190.62419006 15.09765625 191.6953125 C15.09553383 193.28918289 15.09553383 193.28918289 15.09336853 194.91525269 C15.08775834 198.31853009 15.07520409 201.72174238 15.0625 205.125 C15.05748631 207.42838447 15.05292318 209.73176997 15.04882812 212.03515625 C15.0377856 217.69012649 15.02103752 223.34505859 15 229 C9.57918794 228.42214694 6.67359845 227.84975515 2 225 C-0.97134465 224.17406691 -3.96852641 223.561384 -7 223 C-7 222.34 -7 221.68 -7 221 C-9.31 220.67 -11.62 220.34 -14 220 C-14 219.34 -14 218.68 -14 218 C-16.31 217.67 -18.62 217.34 -21 217 C-21 216.34 -21 215.68 -21 215 C-21.99 215 -22.98 215 -24 215 C-24 214.34 -24 213.68 -24 213 C-25.5159375 212.8453125 -25.5159375 212.8453125 -27.0625 212.6875 C-31.21218208 211.96295233 -34.21356263 210.77730734 -38 209 C-38 208.34 -38 207.68 -38 207 C-39.1446875 206.814375 -39.1446875 206.814375 -40.3125 206.625 C-43 206 -43 206 -46 204 C-46 203.34 -46 202.68 -46 202 C-47.98 201.67 -49.96 201.34 -52 201 C-52 200.34 -52 199.68 -52 199 C-53.98 198.67 -55.96 198.34 -58 198 C-58 197.34 -58 196.68 -58 196 C-58.886875 195.9175 -59.77375 195.835 -60.6875 195.75 C-64 195 -64 195 -66.25 193.1875 C-70.10702822 190.11940937 -74.40188507 188.67853516 -79 187 C-79 186.34 -79 185.68 -79 185 C-80.32 184.67 -81.64 184.34 -83 184 C-83 183.34 -83 182.68 -83 182 C-84.36125 181.814375 -84.36125 181.814375 -85.75 181.625 C-88.58970323 181.07890323 -90.52590591 180.42736197 -93 179 C-93 178.34 -93 177.68 -93 177 C-94.65 176.67 -96.3 176.34 -98 176 C-98 175.34 -98 174.68 -98 174 C-99.98 173.67 -101.96 173.34 -104 173 C-104 172.34 -104 171.68 -104 171 C-105.1446875 170.814375 -105.1446875 170.814375 -106.3125 170.625 C-109 170 -109 170 -112 168 C-112 167.34 -112 166.68 -112 166 C-113.98 165.67 -115.96 165.34 -118 165 C-118 164.34 -118 163.68 -118 163 C-119.98 162.67 -121.96 162.34 -124 162 C-124 161.34 -124 160.68 -124 160 C-125.65 159.67 -127.3 159.34 -129 159 C-129 158.34 -129 157.68 -129 157 C-129.99 157 -130.98 157 -132 157 C-132 156.34 -132 155.68 -132 155 C-133.98 154.67 -135.96 154.34 -138 154 C-138 153.34 -138 152.68 -138 152 C-139.65 151.67 -141.3 151.34 -143 151 C-143 150.34 -143 149.68 -143 149 C-144.98 148.67 -146.96 148.34 -149 148 C-149 147.34 -149 146.68 -149 146 C-149.86625 145.814375 -149.86625 145.814375 -150.75 145.625 C-153.02335767 144.99351176 -154.9253529 144.11141809 -157 143 C-157 142.34 -157 141.68 -157 141 C-158.98 140.67 -160.96 140.34 -163 140 C-163 139.34 -163 138.68 -163 138 C-164.3303125 137.8453125 -164.3303125 137.8453125 -165.6875 137.6875 C-169.0826755 136.98284093 -171.21942098 136.0445434 -174 134 C-174 133.34 -174 132.68 -174 132 C-174.66 132 -175.32 132 -176 132 C-176.33 130.02 -176.66 128.04 -177 126 C-177.66 126 -178.32 126 -179 126 C-179.2165625 124.2984375 -179.2165625 124.2984375 -179.4375 122.5625 C-179.61171478 119.19222799 -179.61171478 119.19222799 -181 118 C-181.07226502 116.14712498 -181.0838122 114.29166122 -181.0625 112.4375 C-181.05347656 111.42558594 -181.04445312 110.41367187 -181.03515625 109.37109375 C-181.02355469 108.58863281 -181.01195312 107.80617188 -181 107 C-180.34 107 -179.68 107 -179 107 C-179 106.01 -179 105.02 -179 104 C-178.34 104 -177.68 104 -177 104 C-176.67 103.01 -176.34 102.02 -176 101 C-175.34 101 -174.68 101 -174 101 C-173.67 100.01 -173.34 99.02 -173 98 C-172.34 98 -171.68 98 -171 98 C-170.67 95.69 -170.34 93.38 -170 91 C-169.360625 90.896875 -168.72125 90.79375 -168.0625 90.6875 C-167.381875 90.460625 -166.70125 90.23375 -166 90 C-165.67 89.01 -165.34 88.02 -165 87 C-164.34 87 -163.68 87 -163 87 C-163 86.34 -163 85.68 -163 85 C-162.01 85 -161.02 85 -160 85 C-159.505 83.515 -159.505 83.515 -159 82 C-158.01 82 -157.02 82 -156 82 C-156 81.34 -156 80.68 -156 80 C-153.44113496 78.67997444 -150.87832932 77.36886218 -148.3125 76.0625 C-147.2306543 75.50272461 -147.2306543 75.50272461 -146.12695312 74.93164062 C-142.43494258 73.06034761 -139.16306904 71.51730444 -135 71 C-135 70.34 -135 69.68 -135 69 C-132.03 68.505 -132.03 68.505 -129 68 C-129 67.34 -129 66.68 -129 66 C-126.03 65.505 -126.03 65.505 -123 65 C-123 64.34 -123 63.68 -123 63 C-120.69 62.67 -118.38 62.34 -116 62 C-116 61.34 -116 60.68 -116 60 C-115.01 60 -114.02 60 -113 60 C-113 59.34 -113 58.68 -113 58 C-111.73308493 57.32591692 -110.46129251 56.66099503 -109.1875 56 C-108.47980469 55.62875 -107.77210937 55.2575 -107.04296875 54.875 C-105 54 -105 54 -102 54 C-102 53.34 -102 52.68 -102 52 C-100.02 51.67 -98.04 51.34 -96 51 C-96 50.34 -96 49.68 -96 49 C-95.01 49 -94.02 49 -93 49 C-93 48.34 -93 47.68 -93 47 C-91.02 46.67 -89.04 46.34 -87 46 C-87 45.34 -87 44.68 -87 44 C-83.535 43.505 -83.535 43.505 -80 43 C-80 42.34 -80 41.68 -80 41 C-78.02 40.67 -76.04 40.34 -74 40 C-74 39.34 -74 38.68 -74 38 C-73.01 38 -72.02 38 -71 38 C-71 37.34 -71 36.68 -71 36 C-69.35 35.67 -67.7 35.34 -66 35 C-66 34.34 -66 33.68 -66 33 C-64.02 32.67 -62.04 32.34 -60 32 C-60 31.34 -60 30.68 -60 30 C-58.02 29.67 -56.04 29.34 -54 29 C-54 28.34 -54 27.68 -54 27 C-52.27843904 25.98696238 -50.54738194 24.99005152 -48.8125 24 C-47.84957031 23.443125 -46.88664063 22.88625 -45.89453125 22.3125 C-42.95111257 20.97783242 -41.18119943 20.72084539 -38 21 C-38 20.34 -38 19.68 -38 19 C-36.35 18.67 -34.7 18.34 -33 18 C-33 17.34 -33 16.68 -33 16 C-31.02 15.67 -29.04 15.34 -27 15 C-27 14.34 -27 13.68 -27 13 C-26.01 13 -25.02 13 -24 13 C-24 12.34 -24 11.68 -24 11 C-22.02 10.67 -20.04 10.34 -18 10 C-18 9.34 -18 8.68 -18 8 C-14.535 7.505 -14.535 7.505 -11 7 C-11 6.34 -11 5.68 -11 5 C-9.02 4.67 -7.04 4.34 -5 4 C-5 3.34 -5 2.68 -5 2 C-3.35 2 -1.7 2 0 2 C0 1.34 0 0.68 0 0 Z " fill="#19BCD7" transform="translate(189,319)"/>
<path d="M0 0 C2.97 0 5.94 0 9 0 C9 0.66 9 1.32 9 2 C11.64 2 14.28 2 17 2 C17 2.66 17 3.32 17 4 C19.97 4.33 22.94 4.66 26 5 C26 5.66 26 6.32 26 7 C26.56847656 7.03738281 27.13695312 7.07476562 27.72265625 7.11328125 C33.08435193 7.56978622 37.1669508 8.63489082 42 11 C42 11.66 42 12.32 42 13 C42.99 13 43.98 13 45 13 C45 13.66 45 14.32 45 15 C46.98 15.33 48.96 15.66 51 16 C51 16.66 51 17.32 51 18 C52.98 18.33 54.96 18.66 57 19 C57 19.66 57 20.32 57 21 C57.886875 21.103125 58.77375 21.20625 59.6875 21.3125 C63.0826755 22.01715907 65.21942098 22.9554566 68 25 C68 25.66 68 26.32 68 27 C69.32 27 70.64 27 72 27 C72 27.66 72 28.32 72 29 C73.98 29.33 75.96 29.66 78 30 C78 30.66 78 31.32 78 32 C79.65 32.33 81.3 32.66 83 33 C83 33.66 83 34.32 83 35 C84.11375 35.185625 84.11375 35.185625 85.25 35.375 C87.80141485 35.95486701 89.7267573 36.73708739 92 38 C92 38.66 92 39.32 92 40 C93.65 40.33 95.3 40.66 97 41 C97 41.66 97 42.32 97 43 C98.98 43.33 100.96 43.66 103 44 C103 44.66 103 45.32 103 46 C104.65 46.33 106.3 46.66 108 47 C108 47.66 108 48.32 108 49 C108.99 49 109.98 49 111 49 C111 49.66 111 50.32 111 51 C112.98 51.33 114.96 51.66 117 52 C117 52.66 117 53.32 117 54 C118.98 54.33 120.96 54.66 123 55 C123 55.66 123 56.32 123 57 C124.1446875 57.185625 124.1446875 57.185625 125.3125 57.375 C128 58 128 58 131 60 C131 60.66 131 61.32 131 62 C133.97 62.495 133.97 62.495 137 63 C137 63.66 137 64.32 137 65 C138.65 65.33 140.3 65.66 142 66 C142 66.66 142 67.32 142 68 C144.97 68.495 144.97 68.495 148 69 C148 69.66 148 70.32 148 71 C149.1446875 71.185625 149.1446875 71.185625 150.3125 71.375 C153 72 153 72 156 74 C156 74.66 156 75.32 156 76 C158.97 76.495 158.97 76.495 162 77 C162 77.66 162 78.32 162 79 C162.886875 79.103125 163.77375 79.20625 164.6875 79.3125 C168.0826755 80.01715907 170.21942098 80.9554566 173 83 C173 83.66 173 84.32 173 85 C174.32 85 175.64 85 177 85 C177 85.66 177 86.32 177 87 C179.97 87.495 179.97 87.495 183 88 C183 88.66 183 89.32 183 90 C184.32 90.33 185.64 90.66 187 91 C187 91.66 187 92.32 187 93 C188.134375 93.12375 189.26875 93.2475 190.4375 93.375 C191.613125 93.58125 192.78875 93.7875 194 94 C195.47712785 96.9542557 195.12989998 99.61260204 195.1328125 102.90625 C195.13376923 103.58675415 195.13472595 104.2672583 195.13571167 104.96838379 C195.13639231 106.40747164 195.13454607 107.84656257 195.13037109 109.28564453 C195.12502115 111.49128093 195.13031991 113.6967137 195.13671875 115.90234375 C195.13605795 117.29947962 195.13477674 118.69661536 195.1328125 120.09375 C195.13168457 121.36927734 195.13055664 122.64480469 195.12939453 123.95898438 C195 127 195 127 194 129 C192.26673039 129.7521736 190.53115089 130.50016754 188.77734375 131.203125 C186.83198124 131.99699103 186.83198124 131.99699103 184.75 133.6875 C183 135 183 135 180 135 C180 135.66 180 136.32 180 137 C178.35 137.33 176.7 137.66 175 138 C175 138.66 175 139.32 175 140 C173.35546875 141.5078125 173.35546875 141.5078125 171.1875 143.125 C170.47980469 143.66382813 169.77210938 144.20265625 169.04296875 144.7578125 C167 146 167 146 164 146 C164 146.66 164 147.32 164 148 C162.35 148.33 160.7 148.66 159 149 C159 149.66 159 150.32 159 151 C157.02 151.33 155.04 151.66 153 152 C153 152.66 153 153.32 153 154 C151.02 154.33 149.04 154.66 147 155 C147 155.66 147 156.32 147 157 C145.70990357 157.50403768 144.41786211 158.00309926 143.125 158.5 C142.04605469 158.91765625 142.04605469 158.91765625 140.9453125 159.34375 C139 160 139 160 137 160 C137 160.66 137 161.32 137 162 C135.02 162.33 133.04 162.66 131 163 C131 163.66 131 164.32 131 165 C129.35 165.33 127.7 165.66 126 166 C126 166.66 126 167.32 126 168 C125.01 168 124.02 168 123 168 C123 168.66 123 169.32 123 170 C121.73308493 170.67408308 120.46129251 171.33900497 119.1875 172 C118.47980469 172.37125 117.77210938 172.7425 117.04296875 173.125 C115 174 115 174 112 174 C112 174.66 112 175.32 112 176 C109.09451118 178.04169485 107.59857954 179 104 179 C104 179.66 104 180.32 104 181 C102.02 181.33 100.04 181.66 98 182 C97.67 182.99 97.34 183.98 97 185 C93.5065403 186.74672985 90.93154432 188 87 188 C87 188.66 87 189.32 87 190 C84.09451118 192.04169485 82.59857954 193 79 193 C79 193.66 79 194.32 79 195 C77.02 195.33 75.04 195.66 73 196 C73 196.66 73 197.32 73 198 C71.02 198.33 69.04 198.66 67 199 C67 199.66 67 200.32 67 201 C65.35 201.33 63.7 201.66 62 202 C62 202.66 62 203.32 62 204 C56.375 207 56.375 207 53 207 C53 207.66 53 208.32 53 209 C51.39850114 209.67305018 49.79368971 210.33822227 48.1875 211 C46.84751953 211.556875 46.84751953 211.556875 45.48046875 212.125 C43 213 43 213 40 213 C40 213.66 40 214.32 40 215 C38.73160474 215.50615298 37.46016898 216.00469099 36.1875 216.5 C35.12595703 216.91765625 35.12595703 216.91765625 34.04296875 217.34375 C32 218 32 218 29 218 C29 218.66 29 219.32 29 220 C27.23141309 220.67260351 25.46003984 221.33788395 23.6875 222 C22.70136719 222.37125 21.71523438 222.7425 20.69921875 223.125 C18 224 18 224 15 224 C15 224.66 15 225.32 15 226 C8.35863874 229.70680628 8.35863874 229.70680628 4 229 C1.4951889 227.12139167 1.01299375 226.03898126 0 223 C-0.09062549 221.61418793 -0.12788805 220.22446469 -0.12939453 218.83569336 C-0.13254669 218.00150375 -0.13569885 217.16731415 -0.13894653 216.30784607 C-0.1369223 215.4109053 -0.13489807 214.51396454 -0.1328125 213.58984375 C-0.13376923 212.66659805 -0.13472595 211.74335236 -0.13571167 210.79212952 C-0.13639204 208.84115531 -0.13454773 206.89017884 -0.13037109 204.93920898 C-0.12501476 201.94574936 -0.13032406 198.95243936 -0.13671875 195.95898438 C-0.13605806 194.06510383 -0.13477709 192.17122339 -0.1328125 190.27734375 C-0.13483673 189.37837875 -0.13686096 188.47941376 -0.13894653 187.5532074 C-0.13579437 186.72216995 -0.13264221 185.89113251 -0.12939453 185.03491211 C-0.12859894 184.30227646 -0.12780334 183.56964081 -0.12698364 182.81480408 C0 181 0 181 1 179 C1.99 179 2.98 179 4 179 C4 178.34 4 177.68 4 177 C6.31 176.67 8.62 176.34 11 176 C11 175.34 11 174.68 11 174 C12.98 173.67 14.96 173.34 17 173 C17.33 172.01 17.66 171.02 18 170 C19.32 170 20.64 170 22 170 C22 169.34 22 168.68 22 168 C22.99 168 23.98 168 25 168 C25 167.34 25 166.68 25 166 C26.98 165.67 28.96 165.34 31 165 C31 164.34 31 163.68 31 163 C32.98 162.67 34.96 162.34 37 162 C37 161.34 37 160.68 37 160 C38.65 159.67 40.3 159.34 42 159 C42 158.34 42 157.68 42 157 C47.625 154 47.625 154 51 154 C51 153.34 51 152.68 51 152 C53.31 151.67 55.62 151.34 58 151 C58 150.34 58 149.68 58 149 C59.7664657 147.9923048 61.53833823 146.99408286 63.3125 146 C64.29863281 145.443125 65.28476562 144.88625 66.30078125 144.3125 C69 143 69 143 72 143 C72 142.34 72 141.68 72 141 C73.98 140.67 75.96 140.34 78 140 C78 139.34 78 138.68 78 138 C79.65 137.67 81.3 137.34 83 137 C83 136.34 83 135.68 83 135 C84.98 134.67 86.96 134.34 89 134 C89 133.34 89 132.68 89 132 C89.99 132 90.98 132 92 132 C92 131.34 92 130.68 92 130 C93.98 129.67 95.96 129.34 98 129 C98 128.34 98 127.68 98 127 C99.65 126.67 101.3 126.34 103 126 C103 125.34 103 124.68 103 124 C105.64 123.67 108.28 123.34 111 123 C111 122.34 111 121.68 111 121 C111.99 121 112.98 121 114 121 C114 120.34 114 119.68 114 119 C120.69675136 117.96973056 127.2314676 117.89847201 134 118 C133.67 114.7 133.34 111.4 133 108 C127.555 107.505 127.555 107.505 122 107 C122 106.34 122 105.68 122 105 C119.36 104.67 116.72 104.34 114 104 C114 103.34 114 102.68 114 102 C111.36 101.67 108.72 101.34 106 101 C106 100.34 106 99.68 106 99 C104.9275 98.87625 103.855 98.7525 102.75 98.625 C99.62136385 98.10356064 97.66519576 97.59911746 95 96 C95 95.34 95 94.68 95 94 C92.36 93.67 89.72 93.34 87 93 C87 92.34 87 91.68 87 91 C85.02 90.67 83.04 90.34 81 90 C81 89.34 81 88.68 81 88 C79.02 87.67 77.04 87.34 75 87 C75 86.34 75 85.68 75 85 C74.01 85 73.02 85 72 85 C72 84.34 72 83.68 72 83 C70.989375 82.896875 69.97875 82.79375 68.9375 82.6875 C64.78781792 81.96295233 61.78643737 80.77730734 58 79 C58 78.34 58 77.68 58 77 C56.63875 76.814375 56.63875 76.814375 55.25 76.625 C52.41029677 76.07890323 50.47409409 75.42736197 48 74 C48 73.34 48 72.68 48 72 C45.03 71.505 45.03 71.505 42 71 C42 70.34 42 69.68 42 69 C39.03 68.505 39.03 68.505 36 68 C36 67.34 36 66.68 36 66 C34.63875 65.814375 34.63875 65.814375 33.25 65.625 C30.41029677 65.07890323 28.47409409 64.42736197 26 63 C26 62.34 26 61.68 26 61 C24.02 60.67 22.04 60.34 20 60 C20 59.34 20 58.68 20 58 C18.35 57.67 16.7 57.34 15 57 C15 56.34 15 55.68 15 55 C13.68 54.67 12.36 54.34 11 54 C11 53.34 11 52.68 11 52 C10.360625 51.731875 9.72125 51.46375 9.0625 51.1875 C7 50 7 50 6 47 C5.01 46.67 4.02 46.34 3 46 C3 45.34 3 44.68 3 44 C2.01 43.67 1.02 43.34 0 43 C0 28.81 0 14.62 0 0 Z " fill="#21BAD4" transform="translate(781,319)"/>
<path d="M0 0 C13.53 0 27.06 0 41 0 C40.34551441 6.54485587 39.71502119 11.82592371 38 18 C37.34 18 36.68 18 36 18 C35.67 22.29 35.34 26.58 35 31 C34.34 31 33.68 31 33 31 C32.67 34.96 32.34 38.92 32 43 C31.34 43 30.68 43 30 43 C29.67 47.29 29.34 51.58 29 56 C28.34 56 27.68 56 27 56 C27 57.98 27 59.96 27 62 C26.34 62 25.68 62 25 62 C25.020625 63.19625 25.04125 64.3925 25.0625 65.625 C25.06882571 69.18004869 24.69888875 72.50555624 24 76 C23.34 76 22.68 76 22 76 C21.67 80.29 21.34 84.58 21 89 C20.34 89 19.68 89 19 89 C18.505 94.94 18.505 94.94 18 101 C17.34 101 16.68 101 16 101 C16 103.31 16 105.62 16 108 C15.34 108 14.68 108 14 108 C13.505 113.94 13.505 113.94 13 120 C12.34 120 11.68 120 11 120 C10.67 124.29 10.34 128.58 10 133 C9.34 133 8.68 133 8 133 C7.67 136.96 7.34 140.92 7 145 C6.34 145 5.68 145 5 145 C4.92652344 145.92619141 4.92652344 145.92619141 4.8515625 146.87109375 C4.33391578 152.73478159 3.38417877 158.27872775 2 164 C1.34 164 0.68 164 0 164 C-0.07347656 165.17755859 -0.07347656 165.17755859 -0.1484375 166.37890625 C-0.56448174 172.22504511 -1.21703549 177.42823592 -3 183 C-3.36270588 184.99488234 -3.70640699 186.9937811 -4 189 C-4.66 189 -5.32 189 -6 189 C-6.07347656 190.17755859 -6.07347656 190.17755859 -6.1484375 191.37890625 C-6.5620036 197.19022303 -7.11782148 202.478943 -9 208 C-9.66 208 -10.32 208 -11 208 C-11.33 211.96 -11.66 215.92 -12 220 C-12.66 220 -13.32 220 -14 220 C-14.495 226.435 -14.495 226.435 -15 233 C-15.66 233 -16.32 233 -17 233 C-17.33 236.96 -17.66 240.92 -18 245 C-18.66 245 -19.32 245 -20 245 C-20 247.31 -20 249.62 -20 252 C-20.66 252 -21.32 252 -22 252 C-22.33 255.96 -22.66 259.92 -23 264 C-23.66 264 -24.32 264 -25 264 C-25.33 268.29 -25.66 272.58 -26 277 C-26.66 277 -27.32 277 -28 277 C-28.495 282.94 -28.495 282.94 -29 289 C-29.66 289 -30.32 289 -31 289 C-30.95875 289.886875 -30.9175 290.77375 -30.875 291.6875 C-31.00210421 295.05576152 -31.72665037 296.92898032 -33 300 C-33.3813074 302.32597511 -33.72460254 304.65912158 -34 307 C-34.66 307 -35.32 307 -36 307 C-36.495 312.94 -36.495 312.94 -37 319 C-37.66 319 -38.32 319 -39 319 C-39.33 322.63 -39.66 326.26 -40 330 C-40.66 330 -41.32 330 -42 330 C-42.04898438 330.64066406 -42.09796875 331.28132813 -42.1484375 331.94140625 C-42.6040145 337.21196085 -43.3597379 341.96986288 -45 347 C-45.66 347 -46.32 347 -47 347 C-46.979375 348.0725 -46.95875 349.145 -46.9375 350.25 C-46.9857984 353.14790424 -47.13155885 355.28612141 -48 358 C-48.66 358 -49.32 358 -50 358 C-50.33 361.3 -50.66 364.6 -51 368 C-51.66 368 -52.32 368 -53 368 C-53.12375 368.969375 -53.2475 369.93875 -53.375 370.9375 C-53.58125 371.948125 -53.7875 372.95875 -54 374 C-57.06594594 375.53297297 -60.27111853 375.12131455 -63.6328125 375.09765625 C-64.76056595 375.09553383 -64.76056595 375.09553383 -65.91110229 375.09336853 C-68.3157751 375.08776465 -70.72035527 375.07521157 -73.125 375.0625 C-74.75390491 375.0574855 -76.38281127 375.0529225 -78.01171875 375.04882812 C-82.00784827 375.03779397 -86.00390842 375.02052679 -90 375 C-90.05263775 368.0605893 -89.9983093 361.17245897 -89.5 354.25 C-89.45230469 353.54101562 -89.40460937 352.83203125 -89.35546875 352.1015625 C-89.24055213 350.40079648 -89.12083745 348.70035561 -89 347 C-88.34 347 -87.68 347 -87 347 C-87.01160156 346.11699219 -87.02320313 345.23398437 -87.03515625 344.32421875 C-87.09162182 336.81429809 -86.852857 329.46249871 -86 322 C-85.34 322 -84.68 322 -84 322 C-83.92652344 320.71416016 -83.92652344 320.71416016 -83.8515625 319.40234375 C-83.4525029 313.29948397 -82.84756994 307.85063813 -81 302 C-79.9493011 297.34396175 -78.97219171 292.67300151 -78 288 C-77.34 288 -76.68 288 -76 288 C-75.67 283.38 -75.34 278.76 -75 274 C-74.34 274 -73.68 274 -73 274 C-72.67 269.71 -72.34 265.42 -72 261 C-71.34 261 -70.68 261 -70 261 C-69.67 257.04 -69.34 253.08 -69 249 C-68.34 249 -67.68 249 -67 249 C-67 246.69 -67 244.38 -67 242 C-66.34 242 -65.68 242 -65 242 C-64.67 238.04 -64.34 234.08 -64 230 C-63.34 230 -62.68 230 -62 230 C-61.95101562 229.20335937 -61.90203125 228.40671875 -61.8515625 227.5859375 C-61.46067954 222.0461824 -60.95919422 217.22451791 -59 212 C-57.94902622 208.01248184 -56.9726397 204.00727557 -56 200 C-55.34 200 -54.68 200 -54 200 C-53.67 196.04 -53.34 192.08 -53 188 C-52.34 188 -51.68 188 -51 188 C-50.505 181.565 -50.505 181.565 -50 175 C-49.34 175 -48.68 175 -48 175 C-47.93941406 174.21753906 -47.87882813 173.43507813 -47.81640625 172.62890625 C-47.73261719 171.61699219 -47.64882813 170.60507812 -47.5625 169.5625 C-47.48128906 168.55316406 -47.40007813 167.54382813 -47.31640625 166.50390625 C-47 164 -47 164 -46 163 C-45.63239269 160.67182036 -45.29758419 158.3381615 -45 156 C-44.34 156 -43.68 156 -43 156 C-42.67 152.04 -42.34 148.08 -42 144 C-41.34 144 -40.68 144 -40 144 C-39.95101562 143.28714844 -39.90203125 142.57429687 -39.8515625 141.83984375 C-39.41883335 136.29643416 -38.67158116 131.32816495 -37 126 C-36.63729412 124.00511766 -36.29359301 122.0062189 -36 120 C-35.34 120 -34.68 120 -34 120 C-33.93941406 119.21753906 -33.87882813 118.43507813 -33.81640625 117.62890625 C-33.73261719 116.61699219 -33.64882813 115.60507812 -33.5625 114.5625 C-33.48128906 113.55316406 -33.40007813 112.54382813 -33.31640625 111.50390625 C-33 109 -33 109 -32 108 C-31.63239269 105.67182036 -31.29758419 103.3381615 -31 101 C-30.34 101 -29.68 101 -29 101 C-28.67 97.04 -28.34 93.08 -28 89 C-27.34 89 -26.68 89 -26 89 C-25.92652344 87.82244141 -25.92652344 87.82244141 -25.8515625 86.62109375 C-25.43761677 80.80444249 -24.82214066 75.56765201 -23 70 C-22.45053004 68.02298553 -21.90935673 66.04365278 -21.375 64.0625 C-21.11460937 63.10472656 -20.85421875 62.14695312 -20.5859375 61.16015625 C-20.39257812 60.44730469 -20.19921875 59.73445313 -20 59 C-19.34 59 -18.68 59 -18 59 C-17.67 55.04 -17.34 51.08 -17 47 C-16.34 47 -15.68 47 -15 47 C-14.67 42.71 -14.34 38.42 -14 34 C-13.34 34 -12.68 34 -12 34 C-11.95101562 33.27554688 -11.90203125 32.55109375 -11.8515625 31.8046875 C-11.44793848 26.58541133 -10.98724193 21.90186342 -9 17 C-8.34 17 -7.68 17 -7 17 C-6.67 13.7 -6.34 10.4 -6 7 C-5.34 7 -4.68 7 -4 7 C-3.67 5.68 -3.34 4.36 -3 3 C-2.34 3 -1.68 3 -1 3 C-0.67 2.01 -0.34 1.02 0 0 Z " fill="#24B9D2" transform="translate(705,229)"/>
<path d="M0 0 C11.88 0 23.76 0 36 0 C36 0.66 36 1.32 36 2 C37.65 2.33 39.3 2.66 41 3 C41 3.66 41 4.32 41 5 C41.99 5 42.98 5 44 5 C44 8.96 44 12.92 44 17 C43.34 17 42.68 17 42 17 C42.01160156 17.60585938 42.02320313 18.21171875 42.03515625 18.8359375 C42.21536145 35.56927711 42.21536145 35.56927711 39 42 C38.01 42 37.02 42 36 42 C36 42.66 36 43.32 36 44 C31.07015675 46.03993514 27.42039575 47.40652968 22 47 C22 47.66 22 48.32 22 49 C14.63959083 49.79725902 7.40239645 50.12886183 0 50 C0 50.66 0 51.32 0 52 C-4.62 52.33 -9.24 52.66 -14 53 C-14 53.66 -14 54.32 -14 55 C-19.75 58 -19.75 58 -22 58 C-22 58.66 -22 59.32 -22 60 C-22.99 60.495 -22.99 60.495 -24 61 C-24.33 61.99 -24.66 62.98 -25 64 C-25.66 64 -26.32 64 -27 64 C-27.33 65.65 -27.66 67.3 -28 69 C-28.66 69 -29.32 69 -30 69 C-30.185625 70.7634375 -30.185625 70.7634375 -30.375 72.5625 C-30.71671091 75.34500316 -31.20977393 77.72109788 -32 80.4375 C-33.01742059 84.06206084 -33.44354547 87.4426903 -33.75390625 91.1796875 C-34 93 -34 93 -35 94 C-35.23701239 96.85877909 -35.42219182 99.69883297 -35.5625 102.5625 C-35.62727539 103.77196289 -35.62727539 103.77196289 -35.69335938 105.00585938 C-35.79975262 107.00368805 -35.90040888 109.0018207 -36 111 C-36.66 111 -37.32 111 -38 111 C-37.99476318 112.16829346 -37.98952637 113.33658691 -37.98413086 114.5402832 C-37.8937261 136.80274087 -37.93679709 159.0546724 -38.4375 181.3125 C-38.45714813 182.25517731 -38.47679626 183.19785461 -38.49703979 184.1690979 C-38.55351618 186.81733221 -38.61708503 189.46528208 -38.68359375 192.11328125 C-38.70867004 193.29748657 -38.70867004 193.29748657 -38.73425293 194.50561523 C-38.88447498 199.88447498 -38.88447498 199.88447498 -40 201 C-40.16022369 203.88231182 -40.2596158 206.7439792 -40.31640625 209.62890625 C-40.33505737 210.39456909 -40.3537085 211.16023193 -40.3729248 211.94909668 C-40.44142745 214.82010932 -40.50144504 217.69131933 -40.5625 220.5625 C-40.706875 226.976875 -40.85125 233.39125 -41 240 C-54.2 240 -67.4 240 -81 240 C-81 162.78 -81 85.56 -81 6 C-67.8 6 -54.6 6 -41 6 C-41 7.65 -41 9.3 -41 11 C-40.34 11 -39.68 11 -39 11 C-38.505 15.95 -38.505 15.95 -38 21 C-36.68 21 -35.36 21 -34 21 C-33.896875 20.401875 -33.79375 19.80375 -33.6875 19.1875 C-32.87678951 16.60796663 -32.15744833 15.61808625 -30 14 C-27.3125 13.3125 -27.3125 13.3125 -25 13 C-25 12.34 -25 11.68 -25 11 C-23.35 10.67 -21.7 10.34 -20 10 C-20 9.34 -20 8.68 -20 8 C-19.01 8 -18.02 8 -17 8 C-17 7.34 -17 6.68 -17 6 C-14.03 5.505 -14.03 5.505 -11 5 C-11 4.34 -11 3.68 -11 3 C-7.37 2.67 -3.74 2.34 0 2 C0 1.34 0 0.68 0 0 Z " fill="#0EBFDE" transform="translate(342,313)"/>
<path d="M0 0 C0 1.32 0 2.64 0 4 C0.84820313 4.13277344 1.69640625 4.26554687 2.5703125 4.40234375 C6.04063477 5.007081 9.44590618 5.75771267 12.875 6.5625 C14.02742187 6.83191406 15.17984375 7.10132813 16.3671875 7.37890625 C17.23601562 7.58386719 18.10484375 7.78882813 19 8 C18.61702891 16.45177585 17.71185553 24.49513257 15.9284668 32.75585938 C15.24801696 36.0207061 14.92352918 37.77058753 16 41 C16.9075 40.525625 17.815 40.05125 18.75 39.5625 C21.26427949 38.35371179 23.29568209 37.52006114 26 37 C26 38.32 26 39.64 26 41 C24.02 41.33 22.04 41.66 20 42 C19.67 42.99 19.34 43.98 19 45 C15.5065403 46.74672985 12.93154432 48 9 48 C9 48.66 9 49.32 9 50 C6.09451118 52.04169485 4.59857954 53 1 53 C1 53.66 1 54.32 1 55 C-0.98 55.33 -2.96 55.66 -5 56 C-5 56.66 -5 57.32 -5 58 C-6.98 58.33 -8.96 58.66 -11 59 C-11 59.66 -11 60.32 -11 61 C-12.65 61.33 -14.3 61.66 -16 62 C-16 62.66 -16 63.32 -16 64 C-21.625 67 -21.625 67 -25 67 C-25 67.66 -25 68.32 -25 69 C-26.60149886 69.67305018 -28.20631029 70.33822227 -29.8125 71 C-31.15248047 71.556875 -31.15248047 71.556875 -32.51953125 72.125 C-35 73 -35 73 -38 73 C-38 73.66 -38 74.32 -38 75 C-39.26839526 75.50615298 -40.53983102 76.00469099 -41.8125 76.5 C-42.52019531 76.7784375 -43.22789062 77.056875 -43.95703125 77.34375 C-46 78 -46 78 -49 78 C-49 78.66 -49 79.32 -49 80 C-50.76858691 80.67260351 -52.53996016 81.33788395 -54.3125 82 C-55.29863281 82.37125 -56.28476562 82.7425 -57.30078125 83.125 C-60 84 -60 84 -63 84 C-63 84.66 -63 85.32 -63 86 C-69.64136126 89.70680628 -69.64136126 89.70680628 -74 89 C-76.5048111 87.12139167 -76.98700625 86.03898126 -78 83 C-78.09062549 81.61418793 -78.12788805 80.22446469 -78.12939453 78.83569336 C-78.13254669 78.00150375 -78.13569885 77.16731415 -78.13894653 76.30784607 C-78.1369223 75.4109053 -78.13489807 74.51396454 -78.1328125 73.58984375 C-78.13376923 72.66659805 -78.13472595 71.74335236 -78.13571167 70.79212952 C-78.13639204 68.84115531 -78.13454773 66.89017884 -78.13037109 64.93920898 C-78.12501476 61.94574936 -78.13032406 58.95243936 -78.13671875 55.95898438 C-78.13605806 54.06510383 -78.13477709 52.17122339 -78.1328125 50.27734375 C-78.13483673 49.37837875 -78.13686096 48.47941376 -78.13894653 47.5532074 C-78.13579437 46.72216995 -78.13264221 45.89113251 -78.12939453 45.03491211 C-78.12859894 44.30227646 -78.12780334 43.56964081 -78.12698364 42.81480408 C-78 41 -78 41 -77 39 C-76.01 39 -75.02 39 -74 39 C-74 38.34 -74 37.68 -74 37 C-70.535 36.505 -70.535 36.505 -67 36 C-67 35.34 -67 34.68 -67 34 C-64.03 33.505 -64.03 33.505 -61 33 C-60.67 32.01 -60.34 31.02 -60 30 C-58.68 30 -57.36 30 -56 30 C-56 29.34 -56 28.68 -56 28 C-55.01 28 -54.02 28 -53 28 C-53 27.34 -53 26.68 -53 26 C-51.02 25.67 -49.04 25.34 -47 25 C-47 24.34 -47 23.68 -47 23 C-45.02 22.67 -43.04 22.34 -41 22 C-41 21.34 -41 20.68 -41 20 C-39.35 19.67 -37.7 19.34 -36 19 C-36 18.34 -36 17.68 -36 17 C-30.375 14 -30.375 14 -27 14 C-27 13.34 -27 12.68 -27 12 C-23.535 11.505 -23.535 11.505 -20 11 C-20 10.34 -20 9.68 -20 9 C-18.2335343 7.9923048 -16.46166177 6.99408286 -14.6875 6 C-13.20830078 5.1646875 -13.20830078 5.1646875 -11.69921875 4.3125 C-9 3 -9 3 -6 3 C-6 2.34 -6 1.68 -6 1 C-3 0 -3 0 0 0 Z " fill="#17BDDA" transform="translate(859,459)"/>
<path d="M0 0 C12.87 0 25.74 0 39 0 C38.67 3.96 38.34 7.92 38 12 C29.09 12 20.18 12 11 12 C11 83.28 11 154.56 11 228 C18.26 228 25.52 228 33 228 C32.99555878 226.16440521 32.99111755 224.32881042 32.98654175 222.43759155 C32.94593064 205.10633935 32.91586402 187.77509684 32.89637566 170.4438076 C32.88608985 161.53445898 32.87208143 152.62514603 32.84912109 143.71582031 C32.82910428 135.9449297 32.816264 128.17406493 32.81182301 120.40314925 C32.80922959 116.29353802 32.80319098 112.1840007 32.78853989 108.0744133 C32.77482452 104.19535593 32.77080511 100.31640194 32.77378464 96.43732262 C32.77324064 95.02414701 32.76934716 93.61096745 32.76158905 92.19781303 C32.70130029 80.63534899 33.31783107 69.04650678 37 58 C39.84550012 58.66010476 42.52325999 59.51724966 45.25 60.5625 C45.95640625 60.83191406 46.6628125 61.10132813 47.390625 61.37890625 C47.92171875 61.58386719 48.4528125 61.78882813 49 62 C48.69484916 66.14640909 48.37965489 70.29199318 48.0625 74.4375 C47.97548828 75.62150391 47.88847656 76.80550781 47.79882812 78.02539062 C47.71181641 79.15009766 47.62480469 80.27480469 47.53515625 81.43359375 C47.41732788 82.99678345 47.41732788 82.99678345 47.29711914 84.59155273 C47 87 47 87 46 88 C45.76298761 90.85877909 45.57780818 93.69883297 45.4375 96.5625 C45.37272461 97.77196289 45.37272461 97.77196289 45.30664062 99.00585938 C45.20024738 101.00368805 45.09959112 103.0018207 45 105 C44.34 105 43.68 105 43 105 C43.00523682 106.16829346 43.01047363 107.33658691 43.01586914 108.5402832 C43.1062739 130.80274087 43.06320291 153.0546724 42.5625 175.3125 C42.54285187 176.25517731 42.52320374 177.19785461 42.50296021 178.1690979 C42.44648382 180.81733221 42.38291497 183.46528208 42.31640625 186.11328125 C42.29132996 187.29748657 42.29132996 187.29748657 42.26574707 188.50561523 C42.11552502 193.88447498 42.11552502 193.88447498 41 195 C40.83977631 197.88231182 40.7403842 200.7439792 40.68359375 203.62890625 C40.66494263 204.39456909 40.6462915 205.16023193 40.6270752 205.94909668 C40.55857255 208.82010932 40.49855496 211.69131933 40.4375 214.5625 C40.293125 220.976875 40.14875 227.39125 40 234 C26.8 234 13.6 234 0 234 C0 156.78 0 79.56 0 0 Z " fill="#2FB5CB" transform="translate(261,319)"/>
<path d="M0 0 C4.95 0 9.9 0 15 0 C16.70645723 5.1193717 17.24102427 7.7642572 17.1953125 12.9296875 C17.18564453 14.86328125 17.18564453 14.86328125 17.17578125 16.8359375 C17.15907463 18.18229442 17.14214479 19.52864859 17.125 20.875 C17.11495664 22.24478517 17.10583317 23.61457742 17.09765625 24.984375 C17.07414412 28.32309756 17.0412793 31.66145761 17 35 C16.34 35 15.68 35 15 35 C15 37.64 15 40.28 15 43 C14.01 43.33 13.02 43.66 12 44 C12 44.66 12 45.32 12 46 C9.525 46.495 9.525 46.495 7 47 C7 47.66 7 48.32 7 49 C6.01 49 5.02 49 4 49 C3.67 49.99 3.34 50.98 3 52 C2.34 52 1.68 52 1 52 C1 52.66 1 53.32 1 54 C-0.65 54.33 -2.3 54.66 -4 55 C-4 55.66 -4 56.32 -4 57 C-5.485 57.495 -5.485 57.495 -7 58 C-7.495 58.99 -7.495 58.99 -8 60 C-10.5625 60.625 -10.5625 60.625 -13 61 C-13 61.66 -13 62.32 -13 63 C-13.99 63 -14.98 63 -16 63 C-16 63.66 -16 64.32 -16 65 C-17.65 65.33 -19.3 65.66 -21 66 C-21 66.66 -21 67.32 -21 68 C-22.98 68.33 -24.96 68.66 -27 69 C-27 69.66 -27 70.32 -27 71 C-28.98 71.33 -30.96 71.66 -33 72 C-33 72.66 -33 73.32 -33 74 C-34.32 74 -35.64 74 -37 74 C-37 74.66 -37 75.32 -37 76 C-38.98 76.33 -40.96 76.66 -43 77 C-43 77.66 -43 78.32 -43 79 C-44.98 79.33 -46.96 79.66 -49 80 C-49 80.66 -49 81.32 -49 82 C-50.98 82.33 -52.96 82.66 -55 83 C-55 83.66 -55 84.32 -55 85 C-61.625 88 -61.625 88 -65 88 C-65 88.66 -65 89.32 -65 90 C-67.64 90.33 -70.28 90.66 -73 91 C-73 91.66 -73 92.32 -73 93 C-76.465 93.495 -76.465 93.495 -80 94 C-80 94.66 -80 95.32 -80 96 C-81.32 96 -82.64 96 -84 96 C-84 96.66 -84 97.32 -84 98 C-86.97 98.495 -86.97 98.495 -90 99 C-90 99.66 -90 100.32 -90 101 C-91.26691507 101.67408308 -92.53870749 102.33900497 -93.8125 103 C-94.52019531 103.37125 -95.22789063 103.7425 -95.95703125 104.125 C-98 105 -98 105 -101 105 C-101.33 105.99 -101.66 106.98 -102 108 C-102.66 108 -103.32 108 -104 108 C-104 108.66 -104 109.32 -104 110 C-104.99 110 -105.98 110 -107 110 C-107 110.66 -107 111.32 -107 112 C-107.99 112.495 -107.99 112.495 -109 113 C-109 113.66 -109 114.32 -109 115 C-107.68 115.33 -106.36 115.66 -105 116 C-105 116.66 -105 117.32 -105 118 C-104.05125 118.061875 -103.1025 118.12375 -102.125 118.1875 C-101.09375 118.455625 -100.0625 118.72375 -99 119 C-98.28272222 120.64551962 -97.61674772 122.31422289 -97 124 C-94.76740335 125.22772827 -94.76740335 125.22772827 -92 126 C-90.7240282 126.52944888 -89.45324845 127.07155533 -88.1875 127.625 C-87.135625 128.07875 -86.08375 128.5325 -85 129 C-85 129.66 -85 130.32 -85 131 C-82.03 131.99 -79.06 132.98 -76 134 C-76 134.66 -76 135.32 -76 136 C-75.278125 136.12375 -74.55625 136.2475 -73.8125 136.375 C-71.04278106 136.9904931 -68.6029646 137.88444374 -66 139 C-66 139.66 -66 140.32 -66 141 C-64.35 141.33 -62.7 141.66 -61 142 C-61 142.66 -61 143.32 -61 144 C-57.7 144.66 -54.4 145.32 -51 146 C-55.46574314 150.61973429 -60.75193822 151.80797919 -67 152 C-75.35369058 151.17607201 -82.61093306 148.40459179 -90.25 145.0625 C-91.28640625 144.61970703 -92.3228125 144.17691406 -93.390625 143.72070312 C-96.2649606 142.49067813 -99.13301707 141.2470425 -102 140 C-103.41099075 139.39344238 -104.82236612 138.78777745 -106.234375 138.18359375 C-107.14703125 137.79300781 -108.0596875 137.40242187 -109 137 C-109 133.04 -109 129.08 -109 125 C-110.340625 124.731875 -111.68125 124.46375 -113.0625 124.1875 C-117.34512088 123.33097582 -121.02771485 121.77464392 -125 120 C-125.02684679 117.35409986 -125.04676357 114.70846904 -125.0625 112.0625 C-125.07087891 111.30775391 -125.07925781 110.55300781 -125.08789062 109.77539062 C-125.09652441 107.85005687 -125.05224333 105.92464419 -125 104 C-124 103 -124 103 -121.93359375 102.90234375 C-121.10988281 102.91394531 -120.28617187 102.92554688 -119.4375 102.9375 C-118.19806641 102.95103516 -118.19806641 102.95103516 -116.93359375 102.96484375 C-115.97646484 102.98224609 -115.97646484 102.98224609 -115 103 C-115.02320312 102.22914063 -115.04640625 101.45828125 -115.0703125 100.6640625 C-115.08835937 99.66117187 -115.10640625 98.65828125 -115.125 97.625 C-115.14820312 96.62726563 -115.17140625 95.62953125 -115.1953125 94.6015625 C-115 92 -115 92 -113 90 C-111.18610799 89.45181428 -109.3474682 88.98389416 -107.5 88.5625 C-93.58161587 85.77518144 -93.58161587 85.77518144 -81.6875 78.75 C-79.51312766 75.48288869 -79.51312766 75.48288869 -78 69 C-70.74 68.67 -63.48 68.34 -56 68 C-55.505 63.05 -55.505 63.05 -55 58 C-48.07 58 -41.14 58 -34 58 C-33.01 54.7 -32.02 51.4 -31 48 C-28.64692187 45.64692187 -27.40319353 45.45371025 -24.1875 44.8125 C-23.33542969 44.63332031 -22.48335938 44.45414062 -21.60546875 44.26953125 C-18.82841864 43.9822502 -16.69337804 44.31819335 -14 45 C-14 45.66 -14 46.32 -14 47 C-12.17708333 46.0234375 -10.35416667 45.046875 -8.53125 44.0703125 C-5.1633888 42.64624774 -1.54738671 41.88684668 2 41 C2.33 33.41 2.66 25.82 3 18 C-0.3 17.67 -3.6 17.34 -7 17 C-7 16.34 -7 15.68 -7 15 C-8.27875 14.855625 -9.5575 14.71125 -10.875 14.5625 C-13.25692894 14.29357254 -14.84452691 14.07773654 -17 13 C-17 12.01 -17 11.02 -17 10 C-16.195625 9.731875 -15.39125 9.46375 -14.5625 9.1875 C-13.716875 8.795625 -12.87125 8.40375 -12 8 C-11.67 7.01 -11.34 6.02 -11 5 C-8.03 4.505 -8.03 4.505 -5 4 C-5 3.34 -5 2.68 -5 2 C-3.35 2 -1.7 2 0 2 C0 1.34 0 0.68 0 0 Z " fill="#2DB6CE" transform="translate(189,319)"/>
<path d="M0 0 C1.24716797 0.00644531 2.49433594 0.01289063 3.77929688 0.01953125 C5.07287109 0.03628906 6.36644531 0.05304688 7.69921875 0.0703125 C9.01212891 0.07933594 10.32503906 0.08835937 11.67773438 0.09765625 C14.91424788 0.12119453 18.15039024 0.1540773 21.38671875 0.1953125 C21.38671875 0.8553125 21.38671875 1.5153125 21.38671875 2.1953125 C23.03671875 2.5253125 24.68671875 2.8553125 26.38671875 3.1953125 C26.38671875 3.8553125 26.38671875 4.5153125 26.38671875 5.1953125 C27.37671875 5.1953125 28.36671875 5.1953125 29.38671875 5.1953125 C29.38671875 9.1553125 29.38671875 13.1153125 29.38671875 17.1953125 C28.72671875 17.1953125 28.06671875 17.1953125 27.38671875 17.1953125 C27.39832031 17.80117188 27.40992188 18.40703125 27.421875 19.03125 C27.6020802 35.76458961 27.6020802 35.76458961 24.38671875 42.1953125 C23.39671875 42.1953125 22.40671875 42.1953125 21.38671875 42.1953125 C21.38671875 42.8553125 21.38671875 43.5153125 21.38671875 44.1953125 C16.4568755 46.23524764 12.8071145 47.60184218 7.38671875 47.1953125 C7.38671875 47.8553125 7.38671875 48.5153125 7.38671875 49.1953125 C0.02630958 49.99257152 -7.2108848 50.32417433 -14.61328125 50.1953125 C-14.61328125 50.8553125 -14.61328125 51.5153125 -14.61328125 52.1953125 C-19.23328125 52.5253125 -23.85328125 52.8553125 -28.61328125 53.1953125 C-28.61328125 53.8553125 -28.61328125 54.5153125 -28.61328125 55.1953125 C-29.3609375 55.38867188 -30.10859375 55.58203125 -30.87890625 55.78125 C-31.86375 56.04164063 -32.84859375 56.30203125 -33.86328125 56.5703125 C-35.32507813 56.95316406 -35.32507813 56.95316406 -36.81640625 57.34375 C-39.30902099 58.1026746 -41.41880055 58.79607939 -43.61328125 60.1953125 C-43.94328125 61.1853125 -44.27328125 62.1753125 -44.61328125 63.1953125 C-45.27328125 63.1953125 -45.93328125 63.1953125 -46.61328125 63.1953125 C-46.61328125 57.2553125 -46.61328125 51.3153125 -46.61328125 45.1953125 C-44.98390625 45.0715625 -43.35453125 44.9478125 -41.67578125 44.8203125 C-37.99773356 44.49494674 -34.50985914 44.01630023 -30.92578125 43.1328125 C-26.72394581 42.10889953 -22.92891001 42.03838055 -18.61328125 42.1953125 C-18.65453125 41.4940625 -18.69578125 40.7928125 -18.73828125 40.0703125 C-18.59559027 36.78841988 -17.65080492 34.30788351 -16.61328125 31.1953125 C-16.17486341 28.53108099 -15.89134522 25.88326421 -15.61328125 23.1953125 C-16.54140625 22.97875 -16.54140625 22.97875 -17.48828125 22.7578125 C-19.61328125 22.1953125 -19.61328125 22.1953125 -21.61328125 21.1953125 C-28.44308671 20.29742859 -34.67194099 21.72059365 -40.61328125 25.1953125 C-41.12761719 25.8965625 -41.64195312 26.5978125 -42.171875 27.3203125 C-42.64753906 27.9390625 -43.12320312 28.5578125 -43.61328125 29.1953125 C-47.30078125 29.4453125 -47.30078125 29.4453125 -50.61328125 29.1953125 C-48.97669567 24.85888192 -45.76840676 22.24022954 -42.42578125 19.1953125 C-41.87341797 18.67453125 -41.32105469 18.15375 -40.75195312 17.6171875 C-36.95178705 14.12156435 -33.17952755 11.60747029 -28.61328125 9.1953125 C-27.74703125 8.72867187 -26.88078125 8.26203125 -25.98828125 7.78125 C-21.2530986 5.3669299 -16.78835661 3.51444936 -11.61328125 2.1953125 C-10.85893799 1.85258301 -10.10459473 1.50985352 -9.32739258 1.15673828 C-6.07029059 0.00296769 -3.45187082 -0.03152393 0 0 Z " fill="#24B8D0" transform="translate(356.61328125,312.8046875)"/>
<path d="M0 0 C-0.33 9.57 -0.66 19.14 -1 29 C-1.99 29.495 -1.99 29.495 -3 30 C-3.93606536 34.77111953 -4.14549608 39.47294273 -4.25390625 44.32421875 C-4.30315051 45.69604383 -4.35464874 47.06778954 -4.40820312 48.43945312 C-4.49125366 50.57289079 -4.56275307 52.70331071 -4.59692383 54.83813477 C-4.80584758 66.61199895 -4.80584758 66.61199895 -7.55810547 69.81103516 C-12.21274774 72.37206942 -17.76276234 72.75753529 -23 73 C-23.05534912 73.80219971 -23.11069824 74.60439941 -23.16772461 75.4309082 C-23.4202798 79.0583997 -23.67881746 82.68544053 -23.9375 86.3125 C-24.02451172 87.57513672 -24.11152344 88.83777344 -24.20117188 90.13867188 C-24.28818359 91.34716797 -24.37519531 92.55566406 -24.46484375 93.80078125 C-24.543396 94.91622314 -24.62194824 96.03166504 -24.70288086 97.1809082 C-25 100 -25 100 -26 103 C-26.38362772 105.56218514 -26.73860305 108.11791753 -27.0625 110.6875 C-27.15337891 111.38939453 -27.24425781 112.09128906 -27.33789062 112.81445312 C-27.56125994 114.54262623 -27.78098496 116.27126967 -28 118 C-34.24663864 117.44226441 -37.70850958 116.35930891 -44 114 C-44 106.41 -44 98.82 -44 91 C-40.37 91 -36.74 91 -33 91 C-33 78.13 -33 65.26 -33 52 C-28.05 51.505 -28.05 51.505 -23 51 C-23.02320313 49.8140625 -23.04640625 48.628125 -23.0703125 47.40625 C-23.47137434 18.15911901 -23.47137434 18.15911901 -17 7 C-16.68675781 6.3090625 -16.37351562 5.618125 -16.05078125 4.90625 C-12.12680026 -2.44574413 -9.43323856 0 0 0 Z " fill="#0FBFDD" transform="translate(681,427)"/>
<path d="M0 0 C2.97 0 5.94 0 9 0 C9 0.66 9 1.32 9 2 C11.64 2 14.28 2 17 2 C17 2.66 17 3.32 17 4 C19.97 4.33 22.94 4.66 26 5 C26 6.32 26 7.64 26 9 C27.06734375 9.13148438 27.06734375 9.13148438 28.15625 9.265625 C35.40963495 11.13875188 42.03031142 17.51620571 47 23 C46.02675781 22.855625 45.05351563 22.71125 44.05078125 22.5625 C39.00667836 21.84100656 33.94238645 21.29807732 28.87695312 20.75 C23.21942857 20.10971429 23.21942857 20.10971429 21 19 C19.29636178 18.77377919 17.58671299 18.59111527 15.875 18.4375 C14.96492187 18.35371094 14.05484375 18.26992188 13.1171875 18.18359375 C12.41851563 18.12300781 11.71984375 18.06242187 11 18 C11.30808594 18.68707031 11.61617187 19.37414062 11.93359375 20.08203125 C13.10977137 23.30036342 13.60217536 26.29502342 14.0625 29.6875 C14.55846189 33.98917745 14.55846189 33.98917745 16 38 C16.04022391 40.3329866 16.04320247 42.66706666 16 45 C14.64397415 44.73863447 13.29025908 44.46527857 11.9375 44.1875 C11.18339844 44.03667969 10.42929687 43.88585937 9.65234375 43.73046875 C6.32677543 42.81459058 3.17048249 41.35877821 0 40 C0 26.8 0 13.6 0 0 Z " fill="#33B1C8" transform="translate(781,319)"/>
<path d="M0 0 C4.30024427 0.47780492 6.13421376 2.93427518 9 6 C9.60714844 6.57621094 10.21429687 7.15242188 10.83984375 7.74609375 C11.47019531 8.34550781 12.10054687 8.94492187 12.75 9.5625 C13.34296875 10.12066406 13.9359375 10.67882812 14.546875 11.25390625 C16.22844263 13.27449961 16.64330712 14.40639981 17 17 C16.33496094 19.18237305 16.33496094 19.18237305 15.234375 21.51171875 C14.83863281 22.35154297 14.44289063 23.19136719 14.03515625 24.05664062 C13.61105469 24.92482422 13.18695312 25.79300781 12.75 26.6875 C12.34136719 27.56728516 11.93273437 28.44707031 11.51171875 29.35351562 C9.19030742 34.19414343 9.19030742 34.19414343 8 36 C6.515 36.495 6.515 36.495 5 37 C5 36.34 5 35.68 5 35 C4.34 35 3.68 35 3 35 C1.11606659 33.12998728 -0.53853708 31.11639264 -2.23828125 29.078125 C-4.05216515 26.8633295 -4.05216515 26.8633295 -6.5625 24.5625 C-8.50331331 21.10278932 -7.95207189 19.21355073 -6.9140625 15.48046875 C-5.59121857 11.89069998 -3.9241642 8.53478767 -2.12109375 5.1640625 C-0.88601668 2.91738037 -0.88601668 2.91738037 0 0 Z " fill="#0CBFDE" transform="translate(507,446)"/>
<path d="M0 0 C6.93 0 13.86 0 21 0 C20.525625 2.619375 20.05125 5.23875 19.5625 7.9375 C19.41498291 8.7637085 19.26746582 9.58991699 19.11547852 10.44116211 C18.11111111 15.88888889 18.11111111 15.88888889 17 17 C16.60545777 18.84599688 16.25823134 20.70225822 15.9375 22.5625 C15.628125 24.356875 15.31875 26.15125 15 28 C10.05 28 5.1 28 0 28 C0 18.76 0 9.52 0 0 Z " fill="#10BDDD" transform="translate(627,563)"/>
<path d="M0 0 C0.33 0 0.66 0 1 0 C1 1.65 1 3.3 1 5 C1.66 5 2.32 5 3 5 C3 5.66 3 6.32 3 7 C2.01 7.495 2.01 7.495 1 8 C-0.13350534 10.01669827 -0.13350534 10.01669827 -1 12 C-1.02687279 10.18757948 -1.04633715 8.37504767 -1.0625 6.5625 C-1.07410156 5.55316406 -1.08570313 4.54382813 -1.09765625 3.50390625 C-1 1 -1 1 0 0 Z M-28 12 C-19.09 12 -10.18 12 -1 12 C-1 12.33 -1 12.66 -1 13 C-9.58 13 -18.16 13 -27 13 C-27 83.29 -27 153.58 -27 226 C-20.73 226 -14.46 226 -8 226 C-7.99191315 224.14743591 -7.98382629 222.29487183 -7.97549438 220.38616943 C-7.8979292 202.90706449 -7.81027901 185.42803561 -7.71247292 167.94903183 C-7.66244955 158.96343419 -7.61600584 149.97784521 -7.578125 140.9921875 C-7.54508108 133.1560781 -7.50518228 125.32003796 -7.45720994 117.48400521 C-7.43206765 113.3387232 -7.41025086 109.19348641 -7.39665604 105.04814911 C-7.3837234 101.13785472 -7.36155122 97.22771638 -7.33261681 93.3175087 C-7.32362776 91.89061558 -7.31787137 90.4636974 -7.31578636 89.0367775 C-7.28656243 72.05839273 -7.28656243 72.05839273 -5 64 C-4.01 63.505 -4.01 63.505 -3 63 C-3.14067587 63.97524376 -3.28135174 64.95048752 -3.42629051 65.95528412 C-4.74531843 75.49410545 -5.30451019 84.85596165 -5.31884766 94.49414062 C-5.32817981 95.96446768 -5.33835315 97.43478959 -5.34928894 98.90510559 C-5.37623337 102.83997226 -5.39163074 106.77480391 -5.40471697 110.70973778 C-5.4205059 114.84303107 -5.44724447 118.97625436 -5.4727478 123.10949707 C-5.51925985 130.91107515 -5.55613602 138.71266681 -5.58942068 146.51431131 C-5.62783874 155.40693891 -5.67719629 164.29949571 -5.72740483 173.19206333 C-5.83031379 191.46132433 -5.91931768 209.73062823 -6 228 C-13.26 228 -20.52 228 -28 228 C-28 156.72 -28 85.44 -28 12 Z " fill="#1EBAD5" transform="translate(300,319)"/>
<path d="M0 0 C0.66 0.33 1.32 0.66 2 1 C0.87895467 2.31587941 -0.24696965 3.62760353 -1.375 4.9375 C-2.00148438 5.66839844 -2.62796875 6.39929688 -3.2734375 7.15234375 C-5 9 -5 9 -7 10 C-5.33248852 6.05860922 -2.77289351 3.2107188 0 0 Z M-9 10 C-8.34 10.33 -7.68 10.66 -7 11 C-7.74443359 11.72703125 -7.74443359 11.72703125 -8.50390625 12.46875 C-12.01282115 15.93105692 -15.39503795 19.40814188 -18.5625 23.1875 C-21.68707848 26.83764122 -24.98373674 29.3771342 -29 32 C-28.25470678 28.65643684 -27.6198453 27.25848733 -25 25 C-24.51789063 24.57203125 -24.03578125 24.1440625 -23.5390625 23.703125 C-19.27422753 20 -19.27422753 20 -17 20 C-16.7525 19.443125 -16.505 18.88625 -16.25 18.3125 C-14.43760226 14.95956419 -12.46885508 11.73442754 -9 10 Z " fill="#2FBDD6" transform="translate(494,373)"/>
<path d="M0 0 C0.66 0 1.32 0 2 0 C2 1.32 2 2.64 2 4 C3.32 4.33 4.64 4.66 6 5 C6 5.66 6 6.32 6 7 C3.03 6.505 3.03 6.505 0 6 C-0.38218767 4.34385343 -0.71395102 2.67542976 -1 1 C-0.67 0.67 -0.34 0.34 0 0 Z " fill="#18AAE0" transform="translate(78,430)"/>
<path d="M0 0 C0 0.66 0 1.32 0 2 C-1.98 2.99 -3.96 3.98 -6 5 C-6.66 4.34 -7.32 3.68 -8 3 C-4.93882432 0.37613513 -4.26826873 0 0 0 Z " fill="#1ABFDD" transform="translate(904,487)"/>
</svg>
